<mxfile host="app.diagrams.net" modified="2021-07-22T05:00:33.345Z" agent="5.0 (Windows NT 10.0; Win64; x64) AppleWebKit/537.36 (KHTML, like Gecko) Chrome/91.0.4472.164 Safari/537.36" etag="rX7OlYmw7G426EEchEu5" version="14.9.0" type="github">
  <diagram id="Cr3XnFRXrhH-EAZBaQz9" name="Page-1">
    <mxGraphModel dx="1038" dy="491" grid="1" gridSize="10" guides="1" tooltips="1" connect="1" arrows="1" fold="1" page="1" pageScale="1" pageWidth="827" pageHeight="1169" math="0" shadow="0">
      <root>
        <mxCell id="0" />
        <mxCell id="1" parent="0" />
        <mxCell id="gdJ-14iqFmF3u2Li8UFI-1" value="&lt;font style=&quot;font-size: 36px&quot; face=&quot;Comic Sans MS&quot;&gt;&lt;b&gt;Sensor 5&lt;/b&gt;&lt;/font&gt;" style="text;html=1;strokeColor=none;fillColor=none;align=center;verticalAlign=middle;whiteSpace=wrap;rounded=0;" vertex="1" parent="1">
          <mxGeometry x="390" y="270" width="160" height="20" as="geometry" />
        </mxCell>
      </root>
    </mxGraphModel>
  </diagram>
</mxfile>
